<svg width="30" height="47" viewBox="0 0 30 47" fill="none" xmlns="http://www.w3.org/2000/svg">
<g clip-path="url(#clip0)">
<path fill-rule="evenodd" clip-rule="evenodd" d="M0 0H15C23.2843 0 30 6.71573 30 15C30 23.2843 23.2843 30 15 30H0V0Z" fill="url(#paint0_linear)"/>
<mask id="mask0" mask-type="alpha" maskUnits="userSpaceOnUse" x="0" y="0" width="30" height="30">
<path fill-rule="evenodd" clip-rule="evenodd" d="M0 0H15C23.2843 0 30 6.71573 30 15C30 23.2843 23.2843 30 15 30H0V0Z" fill="white"/>
</mask>
<g mask="url(#mask0)">
<path fill-rule="evenodd" clip-rule="evenodd" d="M15.1499 0C23.4342 0 30.1499 6.71573 30.1499 15C30.1499 23.2843 23.4342 30 15.1499 30V0Z" fill="white"/>
<path fill-rule="evenodd" clip-rule="evenodd" d="M0 15L15 0C18.7603 0 22.1974 1.38364 24.83 3.66956C24.8294 3.675 13.5 15 13.5 15C13.5 15 24.83 26.325 24.8294 26.3309C22.1969 28.6165 18.76 30 15 30L0 15Z" fill="url(#paint1_linear)"/>
<path fill-rule="evenodd" clip-rule="evenodd" d="M24.8303 3.6698C27.9974 6.42 30 10.4761 30 15C30 19.5241 27.9971 23.5804 24.8297 26.3306C24.8303 26.325 13.5 15 13.5 15L24.8303 3.6698Z" fill="url(#paint2_linear)"/>
</g>
<mask id="mask1" mask-type="alpha" maskUnits="userSpaceOnUse" x="15" y="3" width="17" height="23">
<path fill-rule="evenodd" clip-rule="evenodd" d="M26.3303 3C29.4974 5.7502 31.5 9.80631 31.5 14.3302C31.5 18.8543 29.4971 22.9106 26.3297 25.6608C26.3303 25.6552 15 14.3302 15 14.3302L26.3303 3Z" fill="white"/>
</mask>
<g mask="url(#mask1)">
</g>
</g>
<rect width="7" height="17" transform="translate(0 30)" fill="#5332FF"/>
<rect width="7" height="17" transform="translate(0 30)" fill="url(#paint3_linear)"/>
<defs>
<linearGradient id="paint0_linear" x1="0" y1="0" x2="30.6" y2="30.3" gradientUnits="userSpaceOnUse">
<stop stop-color="#5334F5"/>
<stop offset="1" stop-color="#7B42F6"/>
</linearGradient>
<linearGradient id="paint1_linear" x1="0" y1="15" x2="-2" y2="14" gradientUnits="userSpaceOnUse">
<stop stop-color="#2C3D3C"/>
<stop offset="1" stop-color="#2457F5"/>
</linearGradient>
<linearGradient id="paint2_linear" x1="26" y1="19" x2="45.9847" y2="12.3988" gradientUnits="userSpaceOnUse">
<stop stop-color="#00FFA5"/>
<stop offset="1" stop-color="#B8DFB2"/>
</linearGradient>
<linearGradient id="paint3_linear" x1="3.5" y1="0" x2="3.5" y2="17" gradientUnits="userSpaceOnUse">
<stop stop-color="#2D2D2F" stop-opacity="0.59"/>
<stop offset="1" stop-color="white" stop-opacity="0"/>
</linearGradient>
<clipPath id="clip0">
<rect width="30" height="30" fill="white"/>
</clipPath>
</defs>
</svg>
